<?xml version="1.0" encoding="utf-8"?>
<!-- Generator: Adobe Illustrator 16.0.3, SVG Export Plug-In . SVG Version: 6.00 Build 0)  -->
<!DOCTYPE svg PUBLIC "-//W3C//DTD SVG 1.1//EN" "http://www.w3.org/Graphics/SVG/1.1/DTD/svg11.dtd">
<svg version="1.1" id="Layer_1" xmlns="http://www.w3.org/2000/svg" xmlns:xlink="http://www.w3.org/1999/xlink" x="0px" y="0px"
	 width="102.083px" height="93.75px" viewBox="0 0 102.083 93.75" enable-background="new 0 0 102.083 93.75" xml:space="preserve">
<radialGradient id="SVGID_1_" cx="51.5625" cy="48.4375" r="35.9375" gradientUnits="userSpaceOnUse">
	<stop  offset="0.7783" style="stop-color:#FFFFFF"/>
	<stop  offset="1" style="stop-color:#EDEDED"/>
</radialGradient>
<circle fill="url(#SVGID_1_)" cx="51.563" cy="48.438" r="35.938"/>
<g>
	<defs>
		<circle id="SVGID_2_" cx="50.979" cy="47.896" r="35.938"/>
	</defs>
	<clipPath id="SVGID_3_">
		<use xlink:href="#SVGID_2_"  overflow="visible"/>
	</clipPath>
	<g clip-path="url(#SVGID_3_)">
		<path fill="#E11C46" d="M53.99,47.424c0,0-0.334,0.43-0.961,1.237c-0.665,0.772-1.647,1.955-3.087,3.249
			c-1.425,1.317-3.294,2.798-5.623,4.243c-2.321,1.456-5.112,2.841-8.271,4.043c-3.161,1.197-6.688,2.193-10.45,2.955
			c-3.762,0.75-7.757,1.298-11.863,1.624c-2.053,0.183-4.135,0.307-6.233,0.394c-1.046,0.042-2.099,0.084-3.157,0.127l-1.619,0.046
			l-1.579,0.021c-1.036,0.021-2.159,0.012-3.26,0.011c-1.106-0.003-2.189-0.023-3.289-0.059c-2.191-0.091-4.392-0.2-6.59-0.368
			c-4.392-0.376-8.78-0.886-13.055-1.682c-4.282-0.751-8.453-1.746-12.436-2.885c-3.982-1.146-7.766-2.485-11.281-3.918
			c-3.513-1.444-6.751-2.998-9.658-4.574c-2.904-1.585-5.48-3.178-7.688-4.692c-2.199-1.532-4.057-2.932-5.521-4.17
			c-1.478-1.216-2.571-2.251-3.314-2.953c-0.73-0.716-1.12-1.097-1.12-1.097s0.501,0.214,1.44,0.615
			c0.92,0.425,2.308,0.98,4.038,1.706c3.473,1.433,8.431,3.359,14.449,5.235c3.005,0.946,6.277,1.881,9.755,2.756
			c3.476,0.886,7.161,1.706,10.989,2.447c3.83,0.74,7.808,1.366,11.86,1.935c4.057,0.536,8.19,1.003,12.341,1.32
			c4.154,0.36,8.3,0.567,12.41,0.71c2.08,0.058,4.144,0.116,6.183,0.173c2.027,0.036,4.03,0.072,6,0.107
			c3.924,0.034,7.681-0.016,11.224-0.218c3.539-0.208,6.86-0.561,9.895-1.084c3.034-0.52,5.786-1.196,8.184-1.977
			c2.403-0.77,4.457-1.631,6.126-2.427c0.843-0.387,1.562-0.795,2.22-1.117c0.625-0.356,1.171-0.652,1.605-0.917
			C53.524,47.708,53.99,47.424,53.99,47.424z"/>
	</g>
	<g clip-path="url(#SVGID_3_)">
		<path fill="#E11C46" d="M53.736,47.959c0,0-0.505,0.206-1.45,0.591c-0.962,0.336-2.404,0.869-4.298,1.27
			c-1.893,0.428-4.252,0.776-6.991,0.863c-2.739,0.1-5.848-0.095-9.185-0.635c-3.335-0.544-6.888-1.444-10.527-2.666
			c-3.633-1.231-7.367-2.755-11.086-4.525c-1.87-0.868-3.735-1.802-5.595-2.776c-0.927-0.486-1.86-0.976-2.797-1.468l-1.425-0.77
			l-1.378-0.771c-0.908-0.5-1.875-1.069-2.829-1.62c-0.956-0.556-1.885-1.115-2.819-1.696c-1.853-1.175-3.704-2.369-5.523-3.614
			c-3.615-2.522-7.161-5.157-10.465-7.984c-3.333-2.791-6.447-5.738-9.327-8.716c-2.876-2.983-5.483-6.035-7.811-9.034
			c-2.32-3.007-4.348-5.972-6.078-8.791c-1.722-2.825-3.156-5.492-4.312-7.907c-1.138-2.427-2.048-4.568-2.697-6.373
			c-0.671-1.792-1.101-3.235-1.393-4.214c-0.275-0.985-0.421-1.51-0.421-1.51s0.327,0.436,0.939,1.253
			c0.584,0.828,1.509,2.003,2.645,3.496c2.291,2.978,5.622,7.125,9.895,11.758c2.13,2.322,4.496,4.767,7.071,7.264
			c2.567,2.505,5.349,5.058,8.293,7.614c2.946,2.556,6.079,5.087,9.304,7.605c3.245,2.492,6.591,4.964,10.028,7.313
			c3.417,2.39,6.904,4.642,10.392,6.82c1.772,1.09,3.531,2.172,5.269,3.241c1.738,1.045,3.454,2.078,5.142,3.093
			c3.381,1.991,6.66,3.827,9.829,5.423c3.168,1.59,6.221,2.944,9.11,4.009c2.888,1.066,5.609,1.857,8.076,2.38
			c2.466,0.534,4.675,0.815,6.519,0.96c0.924,0.086,1.75,0.092,2.48,0.142c0.72,0.004,1.341,0.021,1.85,0.009
			C53.191,47.972,53.736,47.959,53.736,47.959z"/>
	</g>
	<g clip-path="url(#SVGID_3_)">
		<path fill="#E11C46" d="M53.636,48.406c0,0-0.54-0.074-1.552-0.213c-1.001-0.19-2.517-0.449-4.356-1.049
			c-1.854-0.575-4.07-1.454-6.486-2.748c-2.422-1.283-5.017-3.007-7.637-5.143c-2.617-2.139-5.243-4.694-7.784-7.572
			c-2.53-2.883-5.002-6.069-7.338-9.462c-1.186-1.687-2.334-3.428-3.458-5.202c-0.56-0.885-1.123-1.776-1.688-2.671l-0.849-1.378
			l-0.808-1.357c-0.537-0.887-1.09-1.863-1.64-2.817c-0.55-0.959-1.075-1.908-1.593-2.878C7.429,3.972,6.423,2.012,5.47,0.024
			C3.6-3.967,1.847-8.022,0.399-12.123c-1.491-4.083-2.714-8.193-3.719-12.212c-0.999-4.022-1.731-7.968-2.247-11.729
			c-0.506-3.764-0.779-7.346-0.868-10.651c-0.08-3.307,0.012-6.334,0.219-9.004c0.228-2.67,0.51-4.979,0.851-6.867
			c0.315-1.888,0.665-3.353,0.901-4.347c0.254-0.99,0.39-1.519,0.39-1.519s0.065,0.541,0.187,1.555
			c0.092,1.009,0.306,2.489,0.543,4.35c0.495,3.725,1.306,8.981,2.69,15.13c0.684,3.076,1.51,6.376,2.491,9.827
			c0.971,3.453,2.103,7.054,3.375,10.74c1.274,3.687,2.721,7.445,4.254,11.238c1.564,3.781,3.227,7.595,5.028,11.348
			c1.765,3.778,3.658,7.472,5.59,11.102c0.99,1.831,1.972,3.647,2.942,5.441c0.982,1.774,1.952,3.526,2.907,5.25
			c1.932,3.415,3.854,6.644,5.8,9.611c1.949,2.961,3.916,5.661,5.886,8.027c1.967,2.368,3.929,4.412,5.804,6.099
			c1.869,1.696,3.642,3.044,5.166,4.091c0.757,0.536,1.47,0.955,2.077,1.363c0.62,0.363,1.15,0.688,1.597,0.932
			C53.158,48.145,53.636,48.406,53.636,48.406z"/>
	</g>
	<g clip-path="url(#SVGID_3_)">
		<path fill="#E11C46" d="M53.755,48.458c0,0-0.423-0.344-1.215-0.989c-0.757-0.682-1.917-1.691-3.177-3.16
			c-1.285-1.455-2.723-3.357-4.114-5.718c-1.403-2.355-2.725-5.176-3.854-8.362c-1.125-3.187-2.041-6.735-2.716-10.514
			c-0.664-3.778-1.121-7.785-1.354-11.897c-0.136-2.057-0.212-4.142-0.251-6.241c-0.018-1.047-0.037-2.1-0.055-3.159L37.01-3.202
			l0.015-1.579c0.002-1.037,0.037-2.158,0.063-3.259c0.028-1.105,0.073-2.188,0.134-3.287c0.141-2.189,0.299-4.387,0.518-6.58
			c0.477-4.382,1.086-8.758,1.979-13.014c0.849-4.263,1.938-8.411,3.167-12.367c1.236-3.955,2.661-7.707,4.175-11.188
			c1.523-3.479,3.151-6.682,4.793-9.552c1.65-2.867,3.302-5.406,4.865-7.579c1.582-2.164,3.023-3.989,4.295-5.425
			c1.25-1.449,2.31-2.519,3.028-3.246c0.731-0.714,1.122-1.095,1.122-1.095s-0.226,0.496-0.648,1.426
			c-0.445,0.91-1.031,2.286-1.796,3.999c-1.513,3.44-3.551,8.353-5.563,14.326c-1.014,2.983-2.022,6.232-2.978,9.69
			c-0.964,3.454-1.868,7.12-2.696,10.93c-0.827,3.812-1.543,7.775-2.204,11.813c-0.628,4.043-1.189,8.166-1.601,12.308
			c-0.455,4.145-0.757,8.285-0.992,12.39c-0.105,2.079-0.211,4.141-0.313,6.178c-0.083,2.026-0.165,4.027-0.245,5.996
			c-0.123,3.921-0.159,7.679-0.038,11.226c0.127,3.542,0.405,6.871,0.858,9.917c0.451,3.045,1.064,5.811,1.79,8.227
			c0.716,2.42,1.529,4.492,2.287,6.179c0.368,0.852,0.76,1.58,1.066,2.245c0.342,0.632,0.626,1.185,0.881,1.626
			C53.482,47.986,53.755,48.458,53.755,48.458z"/>
	</g>
	<g clip-path="url(#SVGID_3_)">
		<path fill="#E11C46" d="M53.227,48.192c0,0-0.194-0.509-0.558-1.463c-0.314-0.969-0.814-2.423-1.172-4.325
			c-0.386-1.902-0.679-4.269-0.704-7.009c-0.037-2.741,0.229-5.844,0.844-9.168c0.619-3.323,1.601-6.854,2.905-10.464
			c1.313-3.604,2.921-7.302,4.776-10.98c0.91-1.849,1.886-3.693,2.902-5.53c0.508-0.916,1.019-1.837,1.532-2.764l0.802-1.407
			l0.802-1.36c0.521-0.896,1.111-1.851,1.684-2.791c0.577-0.943,1.157-1.859,1.76-2.78c1.217-1.825,2.452-3.649,3.738-5.439
			c2.604-3.557,5.319-7.042,8.221-10.281c2.866-3.268,5.884-6.315,8.926-9.126c3.049-2.807,6.158-5.344,9.21-7.603
			c3.059-2.251,6.07-4.21,8.927-5.875c2.863-1.658,5.563-3.031,8.004-4.131c2.451-1.082,4.612-1.943,6.432-2.55
			c1.807-0.63,3.26-1.027,4.245-1.296c0.991-0.252,1.52-0.387,1.52-0.387s-0.443,0.317-1.274,0.911
			c-0.841,0.565-2.036,1.463-3.555,2.564c-3.029,2.223-7.252,5.458-11.981,9.625c-2.369,2.077-4.868,4.386-7.423,6.903
			c-2.563,2.509-5.179,5.232-7.801,8.118c-2.622,2.888-5.225,5.962-7.815,9.128c-2.565,3.188-5.113,6.477-7.54,9.859
			c-2.467,3.362-4.798,6.797-7.055,10.234c-1.13,1.748-2.252,3.481-3.36,5.194c-1.084,1.713-2.155,3.406-3.209,5.07
			c-2.067,3.335-3.979,6.571-5.646,9.703c-1.661,3.132-3.085,6.153-4.214,9.018c-1.133,2.862-1.984,5.564-2.563,8.019
			c-0.591,2.454-0.922,4.655-1.108,6.496c-0.107,0.921-0.132,1.748-0.199,2.477c-0.02,0.719-0.05,1.339-0.05,1.849
			C53.227,47.647,53.227,48.192,53.227,48.192z"/>
	</g>
	<g clip-path="url(#SVGID_3_)">
		<path fill="#E11C46" d="M52.781,48.082c0,0,0.087-0.538,0.249-1.546c0.213-0.997,0.506-2.506,1.147-4.332
			c0.617-1.84,1.547-4.036,2.895-6.422c1.338-2.392,3.12-4.947,5.315-7.518c2.197-2.568,4.813-5.135,7.747-7.609
			c2.94-2.464,6.182-4.863,9.627-7.121c1.714-1.146,3.48-2.255,5.279-3.337c0.898-0.54,1.801-1.082,2.709-1.627l1.397-0.818
			l1.375-0.777c0.898-0.516,1.888-1.047,2.854-1.575c0.972-0.528,1.932-1.031,2.913-1.527c1.967-0.972,3.949-1.934,5.958-2.841
			c4.033-1.779,8.127-3.439,12.26-4.793c4.116-1.397,8.252-2.527,12.293-3.44c4.044-0.907,8.005-1.549,11.777-1.979
			c3.774-0.42,7.361-0.612,10.668-0.625c3.309-0.004,6.333,0.157,8.997,0.424c2.664,0.289,4.967,0.624,6.846,1.007
			c1.88,0.357,3.336,0.74,4.324,1c0.984,0.277,1.51,0.424,1.51,0.424s-0.542,0.053-1.559,0.152
			c-1.012,0.069-2.495,0.249-4.361,0.443c-3.734,0.411-9.009,1.102-15.188,2.345c-3.091,0.613-6.409,1.364-9.881,2.267
			c-3.474,0.892-7.101,1.942-10.814,3.13c-3.715,1.189-7.505,2.551-11.332,3.998c-3.816,1.478-7.666,3.053-11.459,4.768
			c-3.817,1.678-7.554,3.487-11.227,5.335c-1.854,0.948-3.691,1.888-5.508,2.817c-1.796,0.941-3.57,1.872-5.314,2.786
			c-3.458,1.854-6.73,3.702-9.741,5.58c-3.004,1.881-5.748,3.786-8.158,5.702c-2.412,1.913-4.501,3.827-6.229,5.664
			c-1.738,1.83-3.126,3.571-4.208,5.071c-0.553,0.745-0.988,1.448-1.41,2.045c-0.377,0.613-0.714,1.135-0.968,1.576
			C53.054,47.61,52.781,48.082,52.781,48.082z"/>
	</g>
	<g clip-path="url(#SVGID_3_)">
		<path fill="#E11C46" d="M51.282,52.578c0,0,0.334-0.43,0.961-1.237c0.665-0.772,1.647-1.955,3.087-3.248
			c1.425-1.318,3.295-2.798,5.623-4.243c2.322-1.456,5.111-2.841,8.271-4.042c3.161-1.197,6.688-2.194,10.45-2.955
			c3.762-0.75,7.757-1.297,11.863-1.624c2.053-0.183,4.136-0.307,6.233-0.394c1.046-0.042,2.099-0.084,3.157-0.127l1.619-0.046
			l1.578-0.021c1.037-0.021,2.159-0.012,3.26-0.011c1.106,0.003,2.19,0.023,3.289,0.059c2.192,0.091,4.393,0.2,6.591,0.368
			c4.392,0.376,8.779,0.886,13.055,1.682c4.281,0.751,8.453,1.746,12.436,2.885c3.982,1.146,7.766,2.485,11.281,3.918
			c3.513,1.444,6.751,2.998,9.658,4.574c2.904,1.585,5.479,3.178,7.688,4.692c2.198,1.532,4.057,2.932,5.521,4.17
			c1.477,1.216,2.571,2.251,3.313,2.953c0.73,0.716,1.12,1.097,1.12,1.097s-0.501-0.214-1.44-0.615
			c-0.92-0.425-2.309-0.98-4.038-1.706c-3.474-1.433-8.432-3.359-14.449-5.235c-3.005-0.946-6.276-1.881-9.755-2.756
			c-3.476-0.886-7.161-1.706-10.989-2.447c-3.829-0.74-7.809-1.366-11.86-1.935c-4.056-0.536-8.189-1.003-12.341-1.32
			c-4.154-0.361-8.3-0.567-12.409-0.71c-2.081-0.058-4.145-0.116-6.184-0.173c-2.027-0.036-4.03-0.072-6-0.107
			c-3.924-0.034-7.681,0.016-11.224,0.218c-3.539,0.208-6.86,0.561-9.895,1.084c-3.034,0.52-5.785,1.196-8.184,1.977
			c-2.403,0.77-4.457,1.631-6.126,2.427c-0.843,0.388-1.562,0.795-2.22,1.117c-0.625,0.356-1.171,0.652-1.605,0.917
			C51.748,52.295,51.282,52.578,51.282,52.578z"/>
	</g>
	<g clip-path="url(#SVGID_3_)">
		<path fill="#E11C46" d="M51.536,52.043c0,0,0.505-0.206,1.45-0.591c0.962-0.336,2.404-0.869,4.298-1.27
			c1.893-0.428,4.252-0.776,6.991-0.863c2.738-0.1,5.848,0.095,9.185,0.635c3.336,0.543,6.889,1.444,10.527,2.666
			c3.633,1.231,7.367,2.755,11.087,4.525c1.869,0.868,3.734,1.802,5.595,2.776c0.927,0.487,1.86,0.977,2.798,1.469l1.425,0.77
			l1.378,0.771c0.908,0.5,1.876,1.069,2.829,1.62c0.956,0.556,1.885,1.115,2.818,1.696c1.853,1.175,3.704,2.369,5.523,3.614
			c3.615,2.522,7.161,5.157,10.465,7.984c3.333,2.791,6.447,5.738,9.327,8.716c2.876,2.984,5.483,6.035,7.811,9.034
			c2.32,3.007,4.348,5.973,6.077,8.791c1.723,2.825,3.157,5.492,4.313,7.907c1.139,2.427,2.048,4.568,2.697,6.373
			c0.671,1.792,1.101,3.235,1.393,4.214c0.275,0.985,0.422,1.51,0.422,1.51s-0.327-0.436-0.939-1.253
			c-0.585-0.828-1.51-2.003-2.646-3.496c-2.291-2.978-5.621-7.125-9.896-11.758c-2.129-2.322-4.495-4.768-7.07-7.265
			c-2.566-2.504-5.349-5.058-8.293-7.613c-2.947-2.556-6.079-5.087-9.304-7.606c-3.245-2.492-6.592-4.964-10.028-7.313
			c-3.417-2.39-6.904-4.642-10.392-6.82c-1.772-1.091-3.531-2.173-5.269-3.242c-1.738-1.045-3.454-2.078-5.143-3.093
			c-3.381-1.991-6.66-3.827-9.829-5.423c-3.168-1.589-6.222-2.944-9.11-4.008c-2.888-1.067-5.608-1.857-8.076-2.38
			c-2.466-0.534-4.675-0.815-6.519-0.96c-0.924-0.086-1.75-0.092-2.48-0.142c-0.72-0.004-1.341-0.021-1.85-0.009
			C52.081,52.031,51.536,52.043,51.536,52.043z"/>
	</g>
	<g clip-path="url(#SVGID_3_)">
		<path fill="#E11C46" d="M51.637,51.597c0,0,0.54,0.074,1.552,0.213c1.001,0.19,2.517,0.449,4.356,1.049
			c1.854,0.575,4.07,1.454,6.486,2.748c2.422,1.283,5.017,3.007,7.637,5.143c2.617,2.139,5.244,4.694,7.784,7.572
			c2.53,2.883,5.002,6.069,7.338,9.462c1.186,1.687,2.334,3.428,3.457,5.202c0.56,0.885,1.123,1.776,1.688,2.671l0.85,1.378
			l0.809,1.357c0.536,0.887,1.089,1.863,1.64,2.817c0.55,0.959,1.074,1.908,1.593,2.878c1.017,1.943,2.023,3.903,2.977,5.891
			c1.87,3.991,3.623,8.046,5.071,12.147c1.49,4.083,2.714,8.193,3.719,12.212c0.999,4.022,1.731,7.968,2.247,11.729
			c0.506,3.764,0.779,7.346,0.868,10.651c0.08,3.307-0.012,6.334-0.219,9.004c-0.228,2.67-0.511,4.979-0.851,6.867
			c-0.315,1.887-0.664,3.352-0.901,4.346c-0.254,0.99-0.39,1.52-0.39,1.52s-0.065-0.541-0.188-1.556
			c-0.092-1.009-0.306-2.489-0.542-4.35c-0.496-3.725-1.307-8.981-2.691-15.13c-0.683-3.076-1.51-6.377-2.49-9.827
			c-0.971-3.453-2.104-7.054-3.376-10.74c-1.273-3.687-2.721-7.445-4.255-11.238c-1.563-3.781-3.226-7.595-5.027-11.348
			c-1.765-3.778-3.658-7.472-5.59-11.102c-0.989-1.831-1.972-3.647-2.942-5.441c-0.981-1.774-1.952-3.526-2.906-5.25
			c-1.933-3.415-3.854-6.644-5.8-9.611c-1.949-2.961-3.916-5.661-5.886-8.027c-1.968-2.368-3.929-4.412-5.804-6.099
			c-1.869-1.696-3.642-3.044-5.166-4.091c-0.757-0.536-1.47-0.955-2.077-1.363c-0.62-0.363-1.15-0.688-1.597-0.932
			C52.114,51.858,51.637,51.597,51.637,51.597z"/>
	</g>
	<g clip-path="url(#SVGID_3_)">
		<path fill="#E11C46" d="M51.518,51.545c0,0,0.423,0.344,1.215,0.989c0.757,0.682,1.917,1.691,3.177,3.16
			c1.285,1.455,2.723,3.357,4.114,5.718c1.403,2.355,2.725,5.176,3.854,8.362c1.125,3.187,2.041,6.735,2.716,10.514
			c0.664,3.778,1.121,7.785,1.354,11.897c0.137,2.057,0.213,4.142,0.251,6.241c0.019,1.047,0.037,2.1,0.056,3.159l0.009,1.619
			l-0.014,1.579c-0.003,1.037-0.037,2.158-0.063,3.259c-0.028,1.105-0.073,2.188-0.134,3.287c-0.141,2.189-0.3,4.387-0.518,6.58
			c-0.477,4.382-1.086,8.758-1.979,13.014c-0.848,4.263-1.938,8.411-3.167,12.366c-1.236,3.955-2.661,7.707-4.175,11.189
			c-1.523,3.479-3.151,6.682-4.793,9.552c-1.65,2.866-3.302,5.405-4.865,7.579c-1.582,2.164-3.023,3.99-4.295,5.426
			c-1.25,1.448-2.31,2.519-3.028,3.245c-0.732,0.714-1.122,1.095-1.122,1.095s0.226-0.496,0.648-1.426
			c0.446-0.91,1.033-2.285,1.796-3.998c1.512-3.44,3.551-8.354,5.563-14.326c1.015-2.983,2.022-6.232,2.978-9.69
			c0.964-3.454,1.868-7.12,2.696-10.931c0.827-3.812,1.543-7.775,2.204-11.813c0.628-4.043,1.189-8.166,1.601-12.308
			c0.455-4.145,0.757-8.285,0.992-12.39c0.105-2.079,0.211-4.141,0.313-6.178c0.083-2.026,0.165-4.027,0.245-5.996
			c0.123-3.921,0.159-7.679,0.038-11.226c-0.127-3.542-0.405-6.871-0.858-9.917c-0.451-3.045-1.064-5.811-1.79-8.227
			c-0.716-2.42-1.529-4.492-2.287-6.179c-0.368-0.852-0.76-1.58-1.066-2.245c-0.342-0.632-0.626-1.185-0.881-1.626
			C51.79,52.017,51.518,51.545,51.518,51.545z"/>
	</g>
	<g clip-path="url(#SVGID_3_)">
		<path fill="#E11C46" d="M52.046,51.811c0,0,0.194,0.509,0.558,1.463c0.314,0.969,0.814,2.423,1.172,4.325
			c0.386,1.902,0.679,4.269,0.704,7.009c0.037,2.741-0.229,5.844-0.844,9.168c-0.619,3.323-1.601,6.854-2.905,10.464
			c-1.313,3.604-2.922,7.302-4.775,10.98c-0.911,1.849-1.887,3.693-2.903,5.53c-0.508,0.916-1.019,1.837-1.532,2.764l-0.801,1.407
			l-0.802,1.36c-0.52,0.896-1.111,1.851-1.684,2.791c-0.578,0.943-1.158,1.859-1.76,2.78c-1.216,1.825-2.452,3.649-3.738,5.439
			c-2.604,3.557-5.319,7.042-8.221,10.281c-2.866,3.268-5.883,6.315-8.926,9.126c-3.048,2.808-6.158,5.344-9.209,7.603
			c-3.059,2.251-6.07,4.211-8.927,5.875c-2.863,1.658-5.563,3.031-8.003,4.132c-2.452,1.082-4.613,1.942-6.432,2.55
			c-1.807,0.631-3.26,1.027-4.245,1.297c-0.991,0.252-1.52,0.387-1.52,0.387s0.443-0.316,1.274-0.91
			c0.841-0.565,2.037-1.463,3.556-2.564c3.029-2.223,7.251-5.458,11.98-9.625c2.37-2.076,4.869-4.386,7.424-6.902
			c2.563-2.51,5.178-5.232,7.8-8.118c2.622-2.888,5.225-5.962,7.815-9.128c2.565-3.188,5.113-6.477,7.54-9.859
			c2.466-3.362,4.798-6.797,7.055-10.234c1.13-1.748,2.252-3.481,3.36-5.194c1.084-1.713,2.156-3.406,3.209-5.07
			c2.067-3.335,3.977-6.571,5.645-9.703c1.662-3.132,3.086-6.153,4.215-9.018c1.133-2.862,1.984-5.564,2.563-8.019
			c0.591-2.454,0.922-4.655,1.108-6.496c0.107-0.921,0.132-1.748,0.199-2.477c0.02-0.719,0.05-1.339,0.05-1.849
			C52.046,52.355,52.046,51.811,52.046,51.811z"/>
	</g>
	<g clip-path="url(#SVGID_3_)">
		<path fill="#E11C46" d="M52.491,51.921c0,0-0.087,0.538-0.249,1.546c-0.213,0.997-0.506,2.506-1.147,4.332
			c-0.618,1.84-1.547,4.036-2.896,6.422c-1.338,2.392-3.119,4.947-5.314,7.518c-2.197,2.568-4.813,5.135-7.748,7.609
			c-2.94,2.464-6.182,4.863-9.627,7.121c-1.713,1.146-3.48,2.255-5.279,3.337c-0.897,0.54-1.801,1.082-2.708,1.627l-1.397,0.818
			l-1.375,0.777c-0.899,0.516-1.888,1.047-2.854,1.575c-0.972,0.528-1.932,1.031-2.914,1.527c-1.966,0.972-3.949,1.934-5.958,2.841
			c-4.033,1.779-8.127,3.439-12.259,4.793c-4.116,1.397-8.253,2.527-12.293,3.44c-4.044,0.907-8.005,1.549-11.777,1.979
			c-3.775,0.42-7.362,0.612-10.668,0.625c-3.309,0.004-6.333-0.157-8.997-0.424c-2.665-0.289-4.966-0.624-6.846-1.007
			c-1.88-0.357-3.336-0.74-4.325-1c-0.984-0.277-1.509-0.424-1.509-0.424s0.542-0.053,1.559-0.152
			c1.011-0.069,2.496-0.249,4.361-0.443c3.735-0.411,9.009-1.102,15.188-2.345c3.09-0.613,6.409-1.364,9.88-2.267
			c3.474-0.892,7.1-1.942,10.814-3.13c3.715-1.189,7.505-2.551,11.333-3.998c3.815-1.478,7.666-3.053,11.459-4.768
			c3.817-1.678,7.553-3.487,11.227-5.335c1.853-0.948,3.691-1.888,5.507-2.817c1.796-0.941,3.57-1.872,5.315-2.786
			c3.458-1.854,6.73-3.702,9.741-5.58c3.004-1.881,5.748-3.786,8.159-5.702c2.412-1.913,4.5-3.827,6.229-5.664
			c1.738-1.83,3.126-3.571,4.208-5.071c0.553-0.745,0.988-1.448,1.41-2.045c0.377-0.613,0.714-1.135,0.968-1.576
			C52.219,52.393,52.491,51.921,52.491,51.921z"/>
	</g>
</g>
</svg>
