<?xml version="1.0" encoding="utf-8"?>
<!-- Generator: Adobe Illustrator 16.0.3, SVG Export Plug-In . SVG Version: 6.00 Build 0)  -->
<!DOCTYPE svg PUBLIC "-//W3C//DTD SVG 1.1//EN" "http://www.w3.org/Graphics/SVG/1.1/DTD/svg11.dtd">
<svg version="1.1" id="Layer_1" xmlns="http://www.w3.org/2000/svg" xmlns:xlink="http://www.w3.org/1999/xlink" x="0px" y="0px"
	 width="792px" height="612px" viewBox="0 0 792 612" enable-background="new 0 0 792 612" xml:space="preserve">
<path fill="#FFFFFF" stroke="#E11C46" stroke-width="4" stroke-miterlimit="10" d="M558.841,109.151
	c0.433-14.079-4.594-26.373-15.09-36.869c-10.326-10.326-22.48-15.133-36.476-14.434c-14.001,0.697-28.167,8.223-42.513,22.569
	l-93.724,93.723l-7.95,7.95L255.918,289.26c-14.346,14.347-21.872,28.512-22.568,42.513c-0.7,13.994,4.108,26.149,14.434,36.476
	c10.497,10.496,22.79,15.522,36.87,15.09c14.08-0.436,28.381-7.914,42.905-22.438l108.667-108.667l4.957-4.957l95.22-95.22
	C550.927,137.532,558.405,123.231,558.841,109.151z"/>
<g>
	<defs>
		<path id="SVGID_1_" d="M559.053,108.939c0.434-14.08-4.593-26.373-15.09-36.87c-10.325-10.326-22.48-15.133-36.476-14.434
			c-14,0.697-28.166,8.222-42.513,22.568l-93.723,93.723l-7.95,7.95L256.131,289.048c-14.347,14.347-21.872,28.512-22.569,42.512
			c-0.7,13.995,4.108,26.15,14.434,36.477c10.497,10.496,22.79,15.522,36.87,15.09c14.08-0.436,28.381-7.914,42.905-22.438
			l108.668-108.667l4.957-4.957l95.22-95.22C551.14,137.32,558.618,123.019,559.053,108.939z"/>
	</defs>
	<clipPath id="SVGID_2_">
		<use xlink:href="#SVGID_1_"  overflow="visible"/>
	</clipPath>
	<g clip-path="url(#SVGID_2_)">
		<g>
			<path fill="#E11C46" stroke="#E11C46" stroke-width="4" stroke-miterlimit="10" d="M250.937,365.965
				c-35.653-35.653-59.076-79.639-65.953-123.855c-7.336-47.167,4.748-89.267,34.024-118.544l27.577,27.577
				c-18.892,18.892-26.427,47.744-21.217,81.241c5.669,36.449,25.454,73.185,55.709,103.441
				c30.256,30.255,66.992,50.04,103.441,55.71c33.496,5.209,62.349-2.326,81.24-21.218l27.577,27.577
				c-29.276,29.276-71.377,41.36-118.544,34.024C330.576,425.041,286.591,401.618,250.937,365.965z"/>
		</g>
		<g>
			<path fill="#E11C46" stroke="#E11C46" stroke-width="4" stroke-miterlimit="10" d="M311.919,304.983
				c-35.654-35.653-59.076-79.64-65.952-123.855c-7.336-47.167,4.748-89.268,34.024-118.544l27.577,27.577
				c-18.891,18.891-26.426,47.743-21.217,81.24c5.669,36.449,25.454,73.186,55.709,103.441
				c30.255,30.256,66.993,50.041,103.442,55.71c33.496,5.209,62.349-2.326,81.239-21.218l27.577,27.578
				c-29.276,29.276-71.376,41.359-118.544,34.023C391.559,364.059,347.572,340.637,311.919,304.983z"/>
		</g>
		<g>
			<path fill="#E11C46" stroke="#E11C46" stroke-width="4" stroke-miterlimit="10" d="M372.901,244
				c-35.654-35.653-59.076-79.639-65.953-123.855c-7.335-47.167,4.748-89.268,34.024-118.544l27.577,27.577
				c-18.892,18.892-26.427,47.744-21.217,81.24c5.669,36.449,25.453,73.185,55.709,103.441s66.992,50.041,103.441,55.71
				c33.497,5.209,62.349-2.326,81.24-21.217l27.577,27.577c-29.276,29.276-71.376,41.359-118.544,34.023
				C452.541,303.077,408.555,279.654,372.901,244z"/>
		</g>
		<g>
			<path fill="#E11C46" stroke="#E11C46" stroke-width="4" stroke-miterlimit="10" d="M433.884,183.018
				c-35.653-35.653-59.076-79.639-65.953-123.854c-7.336-47.168,4.747-89.268,34.024-118.544l27.577,27.578
				c-18.892,18.892-26.427,47.743-21.217,81.24c5.669,36.449,25.453,73.185,55.709,103.441s66.992,50.041,103.441,55.71
				c33.497,5.209,62.349-2.326,81.24-21.217l27.577,27.577c-29.277,29.277-71.376,41.36-118.544,34.024
				C513.523,242.095,469.537,218.672,433.884,183.018z"/>
		</g>
		<g>
			<path fill="#E11C46" stroke="#E11C46" stroke-width="4" stroke-miterlimit="10" d="M494.865,122.037
				c-35.653-35.654-59.075-79.64-65.952-123.855c-7.335-47.168,4.748-89.268,34.024-118.544l27.577,27.578
				c-18.892,18.892-26.427,47.743-21.217,81.24c5.669,36.449,25.453,73.185,55.709,103.441
				c30.256,30.255,66.992,50.041,103.441,55.709c33.496,5.209,62.349-2.326,81.24-21.217l27.577,27.577
				c-29.277,29.277-71.376,41.36-118.544,34.024C574.505,181.113,530.52,157.69,494.865,122.037z"/>
		</g>
	</g>
	<use xlink:href="#SVGID_1_"  overflow="visible" fill="none" stroke="#E11C46" stroke-width="4" stroke-miterlimit="10"/>
</g>
<path fill="#FFFFFF" stroke="#E11C46" stroke-width="4" stroke-miterlimit="10" d="M512.059,380.209
	c14.079,0.433,26.373-4.594,36.869-15.09c10.325-10.325,15.134-22.48,14.435-36.476c-0.698-14-8.223-28.166-22.569-42.513
	l-93.723-93.723l-7.95-7.95L331.949,77.287c-14.347-14.347-28.513-21.872-42.513-22.569c-13.995-0.7-26.15,4.108-36.476,14.434
	c-10.497,10.496-15.523,22.79-15.09,36.869c0.435,14.08,7.914,28.381,22.438,42.905l108.667,108.667l4.957,4.957l95.22,95.22
	C483.678,372.295,497.979,379.773,512.059,380.209z"/>
<g>
	<defs>
		<path id="SVGID_3_" d="M512.271,380.422c14.079,0.433,26.373-4.594,36.869-15.09c10.325-10.325,15.134-22.481,14.434-36.477
			c-0.697-14-8.223-28.166-22.568-42.512l-93.724-93.724l-7.95-7.95L332.161,77.499c-14.347-14.347-28.513-21.872-42.512-22.569
			c-13.995-0.7-26.151,4.108-36.476,14.434c-10.496,10.496-15.522,22.79-15.09,36.869c0.435,14.08,7.914,28.381,22.438,42.905
			l108.668,108.668l4.957,4.957l95.22,95.22C483.891,372.508,498.191,379.986,512.271,380.422z"/>
	</defs>
	<clipPath id="SVGID_4_">
		<use xlink:href="#SVGID_3_"  overflow="visible"/>
	</clipPath>
	<g clip-path="url(#SVGID_4_)">
		<g>
			<path fill="#E11C46" stroke="#E11C46" stroke-width="4" stroke-miterlimit="10" d="M255.245,72.305
				C290.898,36.652,334.884,13.229,379.1,6.353c47.168-7.336,89.268,4.748,118.545,34.025l-27.577,27.577
				c-18.892-18.892-47.744-26.428-81.241-21.218c-36.449,5.669-73.185,25.454-103.44,55.709
				c-30.256,30.256-50.041,66.992-55.71,103.441c-5.209,33.497,2.326,62.35,21.217,81.241l-27.577,27.578
				c-29.277-29.277-41.361-71.377-34.024-118.545C196.168,151.945,219.591,107.959,255.245,72.305z"/>
		</g>
		<g>
			<path fill="#E11C46" stroke="#E11C46" stroke-width="4" stroke-miterlimit="10" d="M316.227,133.287
				c35.653-35.653,79.64-59.075,123.855-65.952C487.25,60,529.35,72.083,558.626,101.359l-27.577,27.577
				c-18.892-18.891-47.743-26.426-81.24-21.216c-36.449,5.668-73.186,25.453-103.441,55.708s-50.041,66.992-55.709,103.441
				c-5.209,33.497,2.325,62.349,21.216,81.24l-27.577,27.577c-29.276-29.275-41.359-71.375-34.022-118.543
				C257.15,212.927,280.573,168.94,316.227,133.287z"/>
		</g>
		<g>
			<path fill="#E11C46" stroke="#E11C46" stroke-width="4" stroke-miterlimit="10" d="M377.209,194.27
				c35.653-35.653,79.639-59.076,123.855-65.952c47.167-7.336,89.267,4.747,118.544,34.024l-27.577,27.577
				c-18.892-18.892-47.744-26.427-81.24-21.217c-36.449,5.669-73.186,25.454-103.44,55.709
				c-30.256,30.255-50.041,66.992-55.71,103.441c-5.209,33.496,2.325,62.349,21.216,81.24l-27.577,27.577
				c-29.276-29.276-41.36-71.376-34.023-118.544C318.132,273.909,341.556,229.923,377.209,194.27z"/>
		</g>
		<g>
			<path fill="#E11C46" stroke="#E11C46" stroke-width="4" stroke-miterlimit="10" d="M438.191,255.252
				c35.653-35.653,79.639-59.076,123.854-65.952c47.168-7.336,89.268,4.747,118.544,34.023L653.013,250.9
				c-18.892-18.892-47.743-26.426-81.239-21.217c-36.449,5.669-73.186,25.453-103.441,55.708
				c-30.256,30.256-50.04,66.993-55.709,103.442c-5.21,33.496,2.324,62.349,21.216,81.24l-27.577,27.577
				c-29.276-29.276-41.359-71.376-34.023-118.545C379.115,334.892,402.538,290.905,438.191,255.252z"/>
		</g>
		<g>
			<path fill="#E11C46" stroke="#E11C46" stroke-width="4" stroke-miterlimit="10" d="M499.174,316.233
				c35.652-35.653,79.638-59.076,123.855-65.951c47.167-7.336,89.267,4.747,118.543,34.023l-27.577,27.578
				c-18.892-18.892-47.743-26.426-81.239-21.217c-36.45,5.668-73.186,25.453-103.441,55.709s-50.041,66.992-55.709,103.441
				c-5.21,33.496,2.324,62.349,21.216,81.24l-27.577,27.577c-29.276-29.276-41.359-71.376-34.022-118.544
				C440.097,395.873,463.52,351.888,499.174,316.233z"/>
		</g>
	</g>
	<use xlink:href="#SVGID_3_"  overflow="visible" fill="none" stroke="#E11C46" stroke-width="4" stroke-miterlimit="10"/>
</g>
</svg>
