<?xml version="1.0" encoding="utf-8"?>
<!-- Generator: Adobe Illustrator 16.0.3, SVG Export Plug-In . SVG Version: 6.00 Build 0)  -->
<!DOCTYPE svg PUBLIC "-//W3C//DTD SVG 1.1//EN" "http://www.w3.org/Graphics/SVG/1.1/DTD/svg11.dtd">
<svg version="1.1" id="Layer_1" xmlns="http://www.w3.org/2000/svg" xmlns:xlink="http://www.w3.org/1999/xlink" x="0px" y="0px"
	 width="792px" height="612px" viewBox="0 0 792 612" enable-background="new 0 0 792 612" xml:space="preserve">
<path fill="#FFFFFF" stroke="#006838" stroke-width="3.0216" stroke-miterlimit="10" d="M271.391,377.352
	c11.105-2.016,22.218-7.941,33.329-17.783c10.93-9.682,17.944-19.855,21.05-30.527c3.108-10.676,0.821-20.342-6.856-29.008
	l-50.149-56.615l-4.254-4.802l-57.345-64.739c-7.677-8.666-16.995-12.103-27.968-10.305c-10.968,1.795-21.914,7.529-32.844,17.212
	c-11.112,9.843-18.335,20.158-21.675,30.94c-3.339,10.781-1.123,20.559,6.648,29.332l58.146,65.642l2.652,2.995l50.951,57.518
	C250.847,375.984,260.285,379.363,271.391,377.352z"/>
<path fill="#FFFFFF" stroke="#006838" stroke-width="4" stroke-miterlimit="10" d="M558.841,112.154
	c0.433-14.079-4.594-26.373-15.09-36.869c-10.326-10.326-22.48-15.133-36.476-14.434c-14.001,0.697-28.167,8.223-42.513,22.569
	l-93.724,93.723l-7.95,7.95L255.918,292.263c-14.346,14.347-21.872,28.512-22.568,42.513c-0.7,13.994,4.108,26.149,14.434,36.476
	c10.497,10.496,22.79,15.522,36.87,15.09c14.08-0.436,28.381-7.914,42.905-22.438l108.667-108.667l4.957-4.957l95.22-95.22
	C550.927,140.535,558.405,126.234,558.841,112.154z"/>
<path fill="#006838" d="M235.482,204.263l-22.04-24.88c-2.221-2.508-4.449-4.812-6.684-6.947
	c-14.491,7.735-28.485,17.481-41.513,29.021c-12.996,11.512-24.335,24.193-33.749,37.606c1.854,2.482,3.877,4.98,6.106,7.498
	l22.023,24.862c10.004-13.296,21.581-25.84,34.538-37.318C207.153,222.601,221.039,212.602,235.482,204.263z"/>
<path fill="#006838" d="M292.666,268.82l-28.361-32.018c-14.62,7.766-28.739,17.574-41.876,29.211
	c-13.104,11.607-24.522,24.406-33.982,37.945l28.365,32.021c10.004-13.295,21.582-25.84,34.539-37.318
	C264.338,287.158,278.224,277.159,292.666,268.82z"/>
<g>
	<defs>
		<path id="SVGID_1_" d="M559.053,111.942c0.434-14.08-4.593-26.373-15.09-36.87c-10.325-10.326-22.48-15.133-36.476-14.434
			c-14,0.697-28.166,8.222-42.513,22.568l-93.723,93.723l-7.95,7.95L256.131,292.051c-14.347,14.347-21.872,28.512-22.569,42.512
			c-0.7,13.995,4.108,26.15,14.434,36.477c10.497,10.496,22.79,15.522,36.87,15.09c14.08-0.436,28.381-7.914,42.905-22.438
			l108.668-108.667l4.957-4.957l95.22-95.22C551.14,140.323,558.618,126.021,559.053,111.942z"/>
	</defs>
	<clipPath id="SVGID_2_">
		<use xlink:href="#SVGID_1_"  overflow="visible"/>
	</clipPath>
	<g clip-path="url(#SVGID_2_)">
		<g>
			<path fill="#006838" stroke="#006838" stroke-width="4" stroke-miterlimit="10" d="M250.937,368.968
				c-35.653-35.653-59.076-79.639-65.953-123.855c-7.336-47.167,4.748-89.267,34.024-118.544l27.577,27.577
				c-18.892,18.892-26.427,47.744-21.217,81.241c5.669,36.449,25.454,73.184,55.709,103.441
				c30.256,30.255,66.992,50.04,103.441,55.71c33.496,5.209,62.349-2.326,81.24-21.218l27.577,27.577
				c-29.276,29.276-71.377,41.36-118.544,34.024C330.576,428.044,286.591,404.621,250.937,368.968z"/>
		</g>
		<g>
			<path fill="#006838" stroke="#006838" stroke-width="4" stroke-miterlimit="10" d="M311.919,307.985
				c-35.654-35.653-59.076-79.639-65.952-123.855c-7.336-47.167,4.748-89.268,34.024-118.544l27.577,27.577
				c-18.891,18.891-26.426,47.743-21.217,81.24c5.669,36.449,25.454,73.186,55.709,103.441
				c30.255,30.256,66.993,50.041,103.442,55.71c33.496,5.209,62.349-2.326,81.239-21.218l27.577,27.578
				c-29.276,29.276-71.376,41.359-118.544,34.023C391.559,367.062,347.572,343.64,311.919,307.985z"/>
		</g>
		<g>
			<path fill="#006838" stroke="#006838" stroke-width="4" stroke-miterlimit="10" d="M372.901,247.003
				c-35.654-35.653-59.076-79.639-65.953-123.855c-7.335-47.167,4.748-89.268,34.024-118.544l27.577,27.577
				c-18.892,18.892-26.427,47.744-21.217,81.24c5.669,36.449,25.453,73.185,55.709,103.441s66.992,50.041,103.441,55.71
				c33.497,5.209,62.349-2.326,81.24-21.217l27.577,27.577c-29.276,29.276-71.376,41.359-118.544,34.023
				C452.541,306.08,408.555,282.657,372.901,247.003z"/>
		</g>
		<g>
			<path fill="#006838" stroke="#006838" stroke-width="4" stroke-miterlimit="10" d="M433.884,186.021
				c-35.653-35.653-59.076-79.639-65.953-123.854c-7.336-47.168,4.747-89.268,34.024-118.544L429.532-28.8
				c-18.892,18.892-26.427,47.743-21.217,81.24c5.669,36.449,25.453,73.185,55.709,103.441s66.992,50.041,103.441,55.71
				c33.497,5.209,62.349-2.326,81.24-21.217l27.577,27.577c-29.277,29.277-71.376,41.36-118.544,34.024
				C513.523,245.098,469.537,221.675,433.884,186.021z"/>
		</g>
		<g>
			<path fill="#006838" stroke="#006838" stroke-width="4" stroke-miterlimit="10" d="M494.865,125.04
				C459.212,89.386,435.79,45.4,428.913,1.184c-7.335-47.168,4.748-89.268,34.024-118.544l27.577,27.578
				c-18.892,18.892-26.427,47.743-21.217,81.24c5.669,36.449,25.453,73.185,55.709,103.441
				c30.256,30.255,66.992,50.041,103.441,55.709c33.496,5.209,62.349-2.326,81.24-21.217l27.577,27.577
				c-29.277,29.277-71.376,41.36-118.544,34.024C574.505,184.116,530.52,160.693,494.865,125.04z"/>
		</g>
	</g>
	<use xlink:href="#SVGID_1_"  overflow="visible" fill="none" stroke="#006838" stroke-width="4" stroke-miterlimit="10"/>
</g>
</svg>
