<?xml version="1.0" standalone="no"?>
<!DOCTYPE svg PUBLIC "-//W3C//DTD SVG 20010904//EN"
 "http://www.w3.org/TR/2001/REC-SVG-20010904/DTD/svg10.dtd">
<svg version="1.0" xmlns="http://www.w3.org/2000/svg"
 width="2133.000000pt" height="2133.000000pt" viewBox="0 0 2133.000000 2133.000000"
 preserveAspectRatio="xMidYMid meet">
<metadata>
Created by potrace 1.11, written by Peter Selinger 2001-2013
</metadata>
<g transform="translate(0.000000,2133.000000) scale(0.100000,-0.100000)"
fill="#000000" stroke="none">
<path d="M1135 21323 c-289 -26 -557 -153 -766 -362 -176 -176 -282 -369 -342
-626 l-22 -90 -3 -9510 c-2 -6619 0 -9542 8 -9615 54 -544 448 -980 990 -1097
82 -17 424 -18 9665 -18 8127 0 9591 2 9650 14 251 50 509 190 673 366 162
172 277 398 323 630 12 59 14 1523 14 9650 0 9241 -1 9583 -18 9665 -53 246
-171 464 -346 637 -168 168 -372 277 -631 340 -72 17 -452 18 -9615 19 -5247
0 -9558 -1 -9580 -3z m12282 -1237 c311 -28 633 -71 633 -85 0 -4 -20 -72 -45
-151 -353 -1118 -552 -2324 -582 -3522 l-6 -268 -86 8 c-110 9 -621 9 -683 0
l-48 -8 -196 193 c-959 939 -1757 2067 -2293 3240 -44 98 -81 180 -81 182 0
10 380 122 605 179 537 134 1063 212 1690 250 152 9 930 -4 1092 -18z m2803
-808 c302 -173 601 -398 825 -623 302 -301 511 -617 671 -1015 l59 -145 -1
-185 c-1 -140 -6 -214 -22 -305 -68 -390 -226 -698 -497 -970 -288 -290 -623
-483 -963 -555 -56 -12 -156 -23 -237 -27 -130 -5 -151 -3 -290 26 -82 16
-238 54 -345 84 l-195 53 1 440 c0 241 6 520 13 619 56 818 172 1519 371 2245
51 187 164 551 177 572 5 9 284 -129 433 -214z m-7721 -594 c562 -1211 1333
-2341 2305 -3378 l118 -125 -94 -125 c-51 -68 -122 -171 -158 -228 -72 -116
-229 -418 -285 -551 l-38 -87 -46 5 c-25 3 -118 12 -206 20 -1502 144 -3022
619 -4247 1327 -76 44 -140 83 -143 87 -2 5 22 73 54 152 331 808 796 1548
1325 2108 358 379 671 629 1271 1017 11 7 24 12 29 10 5 -1 57 -105 115 -232z
m-3099 -4952 c420 -219 959 -451 1465 -632 888 -317 1901 -550 2845 -655 80
-9 150 -18 156 -20 7 -2 3 -48 -12 -147 -81 -501 -152 -1238 -189 -1953 -9
-170 -18 -339 -21 -374 l-6 -64 -351 6 c-194 3 -419 11 -502 17 -1329 91
-2476 374 -3568 880 l-158 73 4 991 c4 1052 4 1048 57 1471 22 177 68 482 75
503 4 11 12 9 37 -6 18 -10 94 -51 168 -90z m-206 -4888 c943 -361 2043 -608
3131 -703 356 -32 541 -41 923 -48 l352 -6 0 -1384 0 -1383 -242 0 c-1430 0
-2956 334 -4169 912 l-129 61 0 1299 c0 714 3 1298 6 1298 4 0 61 -21 128 -46z
m27 -4583 c1217 -464 2749 -740 4118 -741 l253 0 -6 -77 c-67 -774 -288 -1326
-692 -1728 -446 -444 -1000 -653 -1673 -632 -516 16 -940 172 -1307 480 -473
396 -734 942 -830 1732 -12 105 -18 252 -21 583 -3 243 -3 442 0 442 2 0 73
-26 158 -59z"/>
</g>
</svg>
